<svg width="400" height="150" viewBox="0 0 400 150" fill="none" xmlns="http://www.w3.org/2000/svg">
  <!-- خط‌های راه -->
  <line x1="20" y1="130" x2="380" y2="130" stroke="#ddd" stroke-width="8" stroke-dasharray="20,20"/>
  
  <!-- راه‌آهن -->
  <line x1="20" y1="60" x2="380" y2="60" stroke="#666" stroke-width="2"/>
  <line x1="20" y1="50" x2="380" y2="50" stroke="#666" stroke-width="2"/>
  <g id="ties">
    <line x1="40" y1="50" x2="40" y2="60" stroke="#999" stroke-width="1"/>
    <line x1="60" y1="50" x2="60" y2="60" stroke="#999" stroke-width="1"/>
    <line x1="80" y1="50" x2="80" y2="60" stroke="#999" stroke-width="1"/>
    <line x1="100" y1="50" x2="100" y2="60" stroke="#999" stroke-width="1"/>
    <line x1="120" y1="50" x2="120" y2="60" stroke="#999" stroke-width="1"/>
    <line x1="140" y1="50" x2="140" y2="60" stroke="#999" stroke-width="1"/>
    <line x1="160" y1="50" x2="160" y2="60" stroke="#999" stroke-width="1"/>
    <line x1="180" y1="50" x2="180" y2="60" stroke="#999" stroke-width="1"/>
    <line x1="200" y1="50" x2="200" y2="60" stroke="#999" stroke-width="1"/>
    <line x1="220" y1="50" x2="220" y2="60" stroke="#999" stroke-width="1"/>
    <line x1="240" y1="50" x2="240" y2="60" stroke="#999" stroke-width="1"/>
    <line x1="260" y1="50" x2="260" y2="60" stroke="#999" stroke-width="1"/>
    <line x1="280" y1="50" x2="280" y2="60" stroke="#999" stroke-width="1"/>
    <line x1="300" y1="50" x2="300" y2="60" stroke="#999" stroke-width="1"/>
    <line x1="320" y1="50" x2="320" y2="60" stroke="#999" stroke-width="1"/>
    <line x1="340" y1="50" x2="340" y2="60" stroke="#999" stroke-width="1"/>
    <line x1="360" y1="50" x2="360" y2="60" stroke="#999" stroke-width="1"/>
  </g>
  
  <!-- قطار -->
  <rect x="50" y="20" width="150" height="30" rx="5" fill="#d4af37" stroke="#2a5298" stroke-width="2"/>
  <rect x="55" y="25" width="25" height="20" fill="#4a90e2"/>
  <rect x="85" y="25" width="25" height="20" fill="#4a90e2"/>
  <rect x="115" y="25" width="25" height="20" fill="#4a90e2"/>
  <rect x="145" y="25" width="25" height="20" fill="#4a90e2"/>
  
  <!-- چرخ‌ها -->
  <circle cx="70" cy="78" r="6" fill="#333"/>
  <circle cx="130" cy="78" r="6" fill="#333"/>
  <circle cx="190" cy="78" r="6" fill="#333"/>
</svg>
